<?xml version="1.0" encoding="UTF-8"?><svg xmlns="http://www.w3.org/2000/svg" xmlns:xlink="http://www.w3.org/1999/xlink" fill-opacity="1" color-rendering="auto" color-interpolation="auto" stroke="black" text-rendering="auto" stroke-linecap="square" width="1687" stroke-miterlimit="10" stroke-opacity="1" shape-rendering="auto" fill="black" stroke-dasharray="none" font-weight="normal" stroke-width="1" height="792" font-family="'Dialog'" font-style="normal" stroke-linejoin="miter" font-size="12" stroke-dashoffset="0" image-rendering="auto">
  <!--Generated by ySVG-->
  <defs id="genericDefs"/>
  <g>
    <defs id="defs1">
      <clipPath clipPathUnits="userSpaceOnUse" id="clipPath1">
        <path d="M0 0 L1687 0 L1687 792 L0 792 L0 0 Z"/>
      </clipPath>
      <clipPath clipPathUnits="userSpaceOnUse" id="clipPath2">
        <path d="M-15 -15 L1672 -15 L1672 777 L-15 777 L-15 -15 Z"/>
      </clipPath>
    </defs>
    <g fill="white" transform="translate(15,15)" stroke="white">
      <rect x="-15" width="1687" height="792" y="-15" clip-path="url(#clipPath2)" stroke="none"/>
    </g>
    <g fill="rgb(255,204,153)" transform="matrix(1,0,0,1,15,15)" stroke="rgb(255,204,153)">
      <rect x="0" width="397.4961" height="30" y="275.4189" clip-path="url(#clipPath2)" stroke="none"/>
    </g>
    <g stroke-miterlimit="1.45" font-family="sans-serif" transform="matrix(1,0,0,1,15,15)" stroke-linecap="butt">
      <text x="7" xml:space="preserve" y="294.5752" clip-path="url(#clipPath2)" stroke="none">com.anrisoftware.globalpom:globalpom-groovytestutils:jar:1.18</text>
      <rect fill="none" x="0" width="397.4961" height="30" y="275.4189" clip-path="url(#clipPath2)"/>
    </g>
    <g fill="rgb(204,204,255)" transform="matrix(1,0,0,1,15,15)" stroke="rgb(204,204,255)">
      <rect x="442.4961" width="338.5156" height="30" y="731.9559" clip-path="url(#clipPath2)" stroke="none"/>
    </g>
    <g stroke-miterlimit="1.45" font-family="sans-serif" transform="matrix(1,0,0,1,15,15)" stroke-linecap="butt">
      <text x="449.4961" xml:space="preserve" y="751.1122" clip-path="url(#clipPath2)" stroke="none">org.apache.commons:commons-lang3:jar:3.1:compile</text>
      <rect fill="none" x="442.4961" width="338.5156" height="30" y="731.9559" clip-path="url(#clipPath2)"/>
    </g>
    <g fill="rgb(204,204,255)" transform="matrix(1,0,0,1,15,15)" stroke="rgb(204,204,255)">
      <rect x="442.4961" width="291.7754" height="30" y="556.9559" clip-path="url(#clipPath2)" stroke="none"/>
    </g>
    <g stroke-miterlimit="1.45" font-family="sans-serif" transform="matrix(1,0,0,1,15,15)" stroke-linecap="butt">
      <text x="449.4961" xml:space="preserve" y="576.1122" clip-path="url(#clipPath2)" stroke="none">org.codehaus.groovy:groovy:jar:2.1.2:compile</text>
      <rect fill="none" x="442.4961" width="291.7754" height="30" y="556.9559" clip-path="url(#clipPath2)"/>
    </g>
    <g fill="rgb(204,204,255)" transform="matrix(1,0,0,1,15,15)" stroke="rgb(204,204,255)">
      <rect x="779.2715" width="179.4863" height="30" y="681.9559" clip-path="url(#clipPath2)" stroke="none"/>
    </g>
    <g stroke-miterlimit="1.45" font-family="sans-serif" transform="matrix(1,0,0,1,15,15)" stroke-linecap="butt">
      <text x="786.2715" xml:space="preserve" y="701.1122" clip-path="url(#clipPath2)" stroke="none">antlr:antlr:jar:2.7.7:compile</text>
      <rect fill="none" x="779.2715" width="179.4863" height="30" y="681.9559" clip-path="url(#clipPath2)"/>
    </g>
    <g fill="rgb(204,204,255)" transform="matrix(1,0,0,1,15,15)" stroke="rgb(204,204,255)">
      <rect x="779.2715" width="243.8105" height="30" y="631.9559" clip-path="url(#clipPath2)" stroke="none"/>
    </g>
    <g stroke-miterlimit="1.45" font-family="sans-serif" transform="matrix(1,0,0,1,15,15)" stroke-linecap="butt">
      <text x="786.2715" xml:space="preserve" y="651.1122" clip-path="url(#clipPath2)" stroke="none">org.ow2.asm:asm-tree:jar:4.0:compile</text>
      <rect fill="none" x="779.2715" width="243.8105" height="30" y="631.9559" clip-path="url(#clipPath2)"/>
    </g>
    <g fill="rgb(204,204,255)" transform="matrix(1,0,0,1,15,15)" stroke="rgb(204,204,255)">
      <rect x="779.2715" width="277.9238" height="30" y="581.9559" clip-path="url(#clipPath2)" stroke="none"/>
    </g>
    <g stroke-miterlimit="1.45" font-family="sans-serif" transform="matrix(1,0,0,1,15,15)" stroke-linecap="butt">
      <text x="786.2715" xml:space="preserve" y="601.1122" clip-path="url(#clipPath2)" stroke="none">org.ow2.asm:asm-commons:jar:4.0:compile</text>
      <rect fill="none" x="779.2715" width="277.9238" height="30" y="581.9559" clip-path="url(#clipPath2)"/>
    </g>
    <g fill="rgb(204,204,255)" transform="matrix(1,0,0,1,15,15)" stroke="rgb(204,204,255)">
      <rect x="779.2715" width="215.0762" height="30" y="531.9559" clip-path="url(#clipPath2)" stroke="none"/>
    </g>
    <g stroke-miterlimit="1.45" font-family="sans-serif" transform="matrix(1,0,0,1,15,15)" stroke-linecap="butt">
      <text x="786.2715" xml:space="preserve" y="551.1122" clip-path="url(#clipPath2)" stroke="none">org.ow2.asm:asm:jar:4.0:compile</text>
      <rect fill="none" x="779.2715" width="215.0762" height="30" y="531.9559" clip-path="url(#clipPath2)"/>
    </g>
    <g fill="rgb(204,204,255)" transform="matrix(1,0,0,1,15,15)" stroke="rgb(204,204,255)">
      <rect x="779.2715" width="238.3848" height="30" y="481.9559" clip-path="url(#clipPath2)" stroke="none"/>
    </g>
    <g stroke-miterlimit="1.45" font-family="sans-serif" transform="matrix(1,0,0,1,15,15)" stroke-linecap="butt">
      <text x="786.2715" xml:space="preserve" y="501.1122" clip-path="url(#clipPath2)" stroke="none">org.ow2.asm:asm-util:jar:4.0:compile</text>
      <rect fill="none" x="779.2715" width="238.3848" height="30" y="481.9559" clip-path="url(#clipPath2)"/>
    </g>
    <g fill="rgb(204,204,255)" transform="matrix(1,0,0,1,15,15)" stroke="rgb(204,204,255)">
      <rect x="779.2715" width="267.9922" height="30" y="431.9559" clip-path="url(#clipPath2)" stroke="none"/>
    </g>
    <g stroke-miterlimit="1.45" font-family="sans-serif" transform="matrix(1,0,0,1,15,15)" stroke-linecap="butt">
      <text x="786.2715" xml:space="preserve" y="451.1122" clip-path="url(#clipPath2)" stroke="none">org.ow2.asm:asm-analysis:jar:4.0:compile</text>
      <rect fill="none" x="779.2715" width="267.9922" height="30" y="431.9559" clip-path="url(#clipPath2)"/>
    </g>
    <g fill="rgb(204,204,255)" transform="matrix(1,0,0,1,15,15)" stroke="rgb(204,204,255)">
      <rect x="442.4961" width="332.8672" height="30" y="300.8379" clip-path="url(#clipPath2)" stroke="none"/>
    </g>
    <g stroke-miterlimit="1.45" font-family="sans-serif" transform="matrix(1,0,0,1,15,15)" stroke-linecap="butt">
      <text x="449.4961" xml:space="preserve" y="319.9941" clip-path="url(#clipPath2)" stroke="none">org.easytesting:fest-swing-junit-4.5:jar:1.2.1:compile</text>
      <rect fill="none" x="442.4961" width="332.8672" height="30" y="300.8379" clip-path="url(#clipPath2)"/>
    </g>
    <g fill="rgb(204,204,255)" transform="matrix(1,0,0,1,15,15)" stroke="rgb(204,204,255)">
      <rect x="820.3633" width="278.5391" height="30" y="363.3379" clip-path="url(#clipPath2)" stroke="none"/>
    </g>
    <g stroke-miterlimit="1.45" font-family="sans-serif" transform="matrix(1,0,0,1,15,15)" stroke-linecap="butt">
      <text x="827.3633" xml:space="preserve" y="382.4941" clip-path="url(#clipPath2)" stroke="none">org.easytesting:fest-swing:jar:1.2.1:compile</text>
      <rect fill="none" x="820.3633" width="278.5391" height="30" y="363.3379" clip-path="url(#clipPath2)"/>
    </g>
    <g fill="rgb(204,204,255)" transform="matrix(1,0,0,1,15,15)" stroke="rgb(204,204,255)">
      <rect x="1143.9023" width="269.3457" height="30" y="438.3379" clip-path="url(#clipPath2)" stroke="none"/>
    </g>
    <g stroke-miterlimit="1.45" font-family="sans-serif" transform="matrix(1,0,0,1,15,15)" stroke-linecap="butt">
      <text x="1150.9023" xml:space="preserve" y="457.4941" clip-path="url(#clipPath2)" stroke="none">org.easytesting:fest-assert:jar:1.2:compile</text>
      <rect fill="none" x="1143.9023" width="269.3457" height="30" y="438.3379" clip-path="url(#clipPath2)"/>
    </g>
    <g fill="rgb(204,204,255)" transform="matrix(1,0,0,1,15,15)" stroke="rgb(204,204,255)">
      <rect x="1143.9023" width="271.0273" height="30" y="388.3379" clip-path="url(#clipPath2)" stroke="none"/>
    </g>
    <g stroke-miterlimit="1.45" font-family="sans-serif" transform="matrix(1,0,0,1,15,15)" stroke-linecap="butt">
      <text x="1150.9023" xml:space="preserve" y="407.4941" clip-path="url(#clipPath2)" stroke="none">org.easytesting:fest-reflect:jar:1.2:compile</text>
      <rect fill="none" x="1143.9023" width="271.0273" height="30" y="388.3379" clip-path="url(#clipPath2)"/>
    </g>
    <g fill="rgb(204,204,255)" transform="matrix(1,0,0,1,15,15)" stroke="rgb(204,204,255)">
      <rect x="1143.9023" width="262.8945" height="30" y="338.3379" clip-path="url(#clipPath2)" stroke="none"/>
    </g>
    <g stroke-miterlimit="1.45" font-family="sans-serif" transform="matrix(1,0,0,1,15,15)" stroke-linecap="butt">
      <text x="1150.9023" xml:space="preserve" y="357.4941" clip-path="url(#clipPath2)" stroke="none">org.easytesting:fest-util:jar:1.1.6:compile</text>
      <rect fill="none" x="1143.9023" width="262.8945" height="30" y="338.3379" clip-path="url(#clipPath2)"/>
    </g>
    <g fill="rgb(204,204,255)" transform="matrix(1,0,0,1,15,15)" stroke="rgb(204,204,255)">
      <rect x="1143.9023" width="252.9805" height="30" y="288.3379" clip-path="url(#clipPath2)" stroke="none"/>
    </g>
    <g stroke-miterlimit="1.45" font-family="sans-serif" transform="matrix(1,0,0,1,15,15)" stroke-linecap="butt">
      <text x="1150.9023" xml:space="preserve" y="307.4941" clip-path="url(#clipPath2)" stroke="none">net.jcip:jcip-annotations:jar:1.0:compile</text>
      <rect fill="none" x="1143.9023" width="252.9805" height="30" y="288.3379" clip-path="url(#clipPath2)"/>
    </g>
    <g fill="rgb(204,204,255)" transform="matrix(1,0,0,1,15,15)" stroke="rgb(204,204,255)">
      <rect x="820.3633" width="309.4531" height="30" y="238.3379" clip-path="url(#clipPath2)" stroke="none"/>
    </g>
    <g stroke-miterlimit="1.45" font-family="sans-serif" transform="matrix(1,0,0,1,15,15)" stroke-linecap="butt">
      <text x="827.3633" xml:space="preserve" y="257.4941" clip-path="url(#clipPath2)" stroke="none">org.easytesting:fest-swing-junit:jar:1.2.1:compile</text>
      <rect fill="none" x="820.3633" width="309.4531" height="30" y="238.3379" clip-path="url(#clipPath2)"/>
    </g>
    <g fill="rgb(204,204,255)" transform="matrix(1,0,0,1,15,15)" stroke="rgb(204,204,255)">
      <rect x="1174.8164" width="481.4082" height="30" y="238.3379" clip-path="url(#clipPath2)" stroke="none"/>
    </g>
    <g stroke-miterlimit="1.45" font-family="sans-serif" transform="matrix(1,0,0,1,15,15)" stroke-linecap="butt">
      <text x="1181.8164" xml:space="preserve" y="257.4941" clip-path="url(#clipPath2)" stroke="none">commons-codec:commons-codec:jar:1.7:compile (version managed from 1.3)</text>
      <rect fill="none" x="1174.8164" width="481.4082" height="30" y="238.3379" clip-path="url(#clipPath2)"/>
    </g>
    <g fill="rgb(204,204,255)" transform="matrix(1,0,0,1,15,15)" stroke="rgb(204,204,255)">
      <rect x="442.4961" width="172.9766" height="30" y="150" clip-path="url(#clipPath2)" stroke="none"/>
    </g>
    <g stroke-miterlimit="1.45" font-family="sans-serif" transform="matrix(1,0,0,1,15,15)" stroke-linecap="butt">
      <text x="449.4961" xml:space="preserve" y="169.1562" clip-path="url(#clipPath2)" stroke="none">junit:junit:jar:4.11:compile</text>
      <rect fill="none" x="442.4961" width="172.9766" height="30" y="150" clip-path="url(#clipPath2)"/>
    </g>
    <g fill="rgb(204,204,255)" transform="matrix(1,0,0,1,15,15)" stroke="rgb(204,204,255)">
      <rect x="660.4727" width="279.5059" height="30" y="150" clip-path="url(#clipPath2)" stroke="none"/>
    </g>
    <g stroke-miterlimit="1.45" font-family="sans-serif" transform="matrix(1,0,0,1,15,15)" stroke-linecap="butt">
      <text x="667.4727" xml:space="preserve" y="169.1562" clip-path="url(#clipPath2)" stroke="none">org.hamcrest:hamcrest-core:jar:1.3:compile</text>
      <rect fill="none" x="660.4727" width="279.5059" height="30" y="150" clip-path="url(#clipPath2)"/>
    </g>
    <g fill="rgb(204,204,255)" transform="matrix(1,0,0,1,15,15)" stroke="rgb(204,204,255)">
      <rect x="442.4961" width="330.7285" height="30" y="450.8379" clip-path="url(#clipPath2)" stroke="none"/>
    </g>
    <g stroke-miterlimit="1.45" font-family="sans-serif" transform="matrix(1,0,0,1,15,15)" stroke-linecap="butt">
      <text x="449.4961" xml:space="preserve" y="469.9941" clip-path="url(#clipPath2)" stroke="none">org.codehaus.groovy:groovy-swing:jar:2.1.2:compile</text>
      <rect fill="none" x="442.4961" width="330.7285" height="30" y="450.8379" clip-path="url(#clipPath2)"/>
    </g>
    <g fill="rgb(204,204,255)" transform="matrix(1,0,0,1,15,15)" stroke="rgb(204,204,255)">
      <rect x="442.4961" width="333.4355" height="30" y="400.8379" clip-path="url(#clipPath2)" stroke="none"/>
    </g>
    <g stroke-miterlimit="1.45" font-family="sans-serif" transform="matrix(1,0,0,1,15,15)" stroke-linecap="butt">
      <text x="449.4961" xml:space="preserve" y="419.9941" clip-path="url(#clipPath2)" stroke="none">org.apache.commons:commons-exec:jar:1.1:compile</text>
      <rect fill="none" x="442.4961" width="333.4355" height="30" y="400.8379" clip-path="url(#clipPath2)"/>
    </g>
    <g fill="rgb(204,204,255)" transform="matrix(1,0,0,1,15,15)" stroke="rgb(204,204,255)">
      <rect x="442.4961" width="406.7773" height="30" y="50" clip-path="url(#clipPath2)" stroke="none"/>
    </g>
    <g stroke-miterlimit="1.45" font-family="sans-serif" transform="matrix(1,0,0,1,15,15)" stroke-linecap="butt">
      <text x="449.4961" xml:space="preserve" y="69.1562" clip-path="url(#clipPath2)" stroke="none">com.google.inject.extensions:guice-assistedinject:jar:3.0:compile</text>
      <rect fill="none" x="442.4961" width="406.7773" height="30" y="50" clip-path="url(#clipPath2)"/>
    </g>
    <g fill="rgb(204,204,255)" transform="matrix(1,0,0,1,15,15)" stroke="rgb(204,204,255)">
      <rect x="894.2734" width="251.5625" height="30" y="50" clip-path="url(#clipPath2)" stroke="none"/>
    </g>
    <g stroke-miterlimit="1.45" font-family="sans-serif" transform="matrix(1,0,0,1,15,15)" stroke-linecap="butt">
      <text x="901.2734" xml:space="preserve" y="69.1562" clip-path="url(#clipPath2)" stroke="none">com.google.inject:guice:jar:3.0:compile</text>
      <rect fill="none" x="894.2734" width="251.5625" height="30" y="50" clip-path="url(#clipPath2)"/>
    </g>
    <g fill="rgb(204,204,255)" transform="matrix(1,0,0,1,15,15)" stroke="rgb(204,204,255)">
      <rect x="1190.8359" width="238.7598" height="30" y="75" clip-path="url(#clipPath2)" stroke="none"/>
    </g>
    <g stroke-miterlimit="1.45" font-family="sans-serif" transform="matrix(1,0,0,1,15,15)" stroke-linecap="butt">
      <text x="1197.8359" xml:space="preserve" y="94.1562" clip-path="url(#clipPath2)" stroke="none">javax.inject:javax.inject:jar:1:compile</text>
      <rect fill="none" x="1190.8359" width="238.7598" height="30" y="75" clip-path="url(#clipPath2)"/>
    </g>
    <g fill="rgb(204,204,255)" transform="matrix(1,0,0,1,15,15)" stroke="rgb(204,204,255)">
      <rect x="1190.8359" width="249.3887" height="30" y="25" clip-path="url(#clipPath2)" stroke="none"/>
    </g>
    <g stroke-miterlimit="1.45" font-family="sans-serif" transform="matrix(1,0,0,1,15,15)" stroke-linecap="butt">
      <text x="1197.8359" xml:space="preserve" y="44.1562" clip-path="url(#clipPath2)" stroke="none">aopalliance:aopalliance:jar:1.0:compile</text>
      <rect fill="none" x="1190.8359" width="249.3887" height="30" y="25" clip-path="url(#clipPath2)"/>
    </g>
    <g fill="rgb(204,204,255)" transform="matrix(1,0,0,1,15,15)" stroke="rgb(204,204,255)">
      <rect x="442.4961" width="226.3496" height="30" y="350.8379" clip-path="url(#clipPath2)" stroke="none"/>
    </g>
    <g stroke-miterlimit="1.45" font-family="sans-serif" transform="matrix(1,0,0,1,15,15)" stroke-linecap="butt">
      <text x="449.4961" xml:space="preserve" y="369.9941" clip-path="url(#clipPath2)" stroke="none">joda-time:joda-time:jar:2.1:compile</text>
      <rect fill="none" x="442.4961" width="226.3496" height="30" y="350.8379" clip-path="url(#clipPath2)"/>
    </g>
    <g fill="rgb(204,204,255)" transform="matrix(1,0,0,1,15,15)" stroke="rgb(204,204,255)">
      <rect x="442.4961" width="259.2207" height="30" y="250" clip-path="url(#clipPath2)" stroke="none"/>
    </g>
    <g stroke-miterlimit="1.45" font-family="sans-serif" transform="matrix(1,0,0,1,15,15)" stroke-linecap="butt">
      <text x="449.4961" xml:space="preserve" y="269.1562" clip-path="url(#clipPath2)" stroke="none">commons-io:commons-io:jar:2.4:compile</text>
      <rect fill="none" x="442.4961" width="259.2207" height="30" y="250" clip-path="url(#clipPath2)"/>
    </g>
    <g fill="rgb(204,204,255)" transform="matrix(1,0,0,1,15,15)" stroke="rgb(204,204,255)">
      <rect x="442.4961" width="219.5234" height="30" y="200" clip-path="url(#clipPath2)" stroke="none"/>
    </g>
    <g stroke-miterlimit="1.45" font-family="sans-serif" transform="matrix(1,0,0,1,15,15)" stroke-linecap="butt">
      <text x="449.4961" xml:space="preserve" y="219.1562" clip-path="url(#clipPath2)" stroke="none">org.slf4j:slf4j-api:jar:1.7.5:compile</text>
      <rect fill="none" x="442.4961" width="219.5234" height="30" y="200" clip-path="url(#clipPath2)"/>
    </g>
    <g fill="rgb(204,204,255)" transform="matrix(1,0,0,1,15,15)" stroke="rgb(204,204,255)">
      <rect x="442.4961" width="274.2559" height="30" y="100" clip-path="url(#clipPath2)" stroke="none"/>
    </g>
    <g stroke-miterlimit="1.45" font-family="sans-serif" transform="matrix(1,0,0,1,15,15)" stroke-linecap="butt">
      <text x="449.4961" xml:space="preserve" y="119.1562" clip-path="url(#clipPath2)" stroke="none">ch.qos.logback:logback-core:jar:1.0.11:test</text>
      <rect fill="none" x="442.4961" width="274.2559" height="30" y="100" clip-path="url(#clipPath2)"/>
    </g>
    <g fill="rgb(204,204,255)" transform="matrix(1,0,0,1,15,15)" stroke="rgb(204,204,255)">
      <rect x="442.4961" width="287.7207" height="30" y="0" clip-path="url(#clipPath2)" stroke="none"/>
    </g>
    <g stroke-miterlimit="1.45" font-family="sans-serif" transform="matrix(1,0,0,1,15,15)" stroke-linecap="butt">
      <text x="449.4961" xml:space="preserve" y="19.1562" clip-path="url(#clipPath2)" stroke="none">ch.qos.logback:logback-classic:jar:1.0.11:test</text>
      <rect fill="none" x="442.4961" width="287.7207" height="30" y="0" clip-path="url(#clipPath2)"/>
      <path fill="none" d="M35.6247 305.4189 L35.6247 725.7427 L56.8379 746.9559 L442.449 746.9559" clip-path="url(#clipPath2)"/>
      <path fill="none" d="M100.874 305.4189 L100.874 550.7427 L122.0872 571.9559 L442.457 571.9559" clip-path="url(#clipPath2)"/>
      <path fill="none" d="M493.1253 586.9559 L493.1253 675.7427 L514.3385 696.9559 L779.2391 696.9559" clip-path="url(#clipPath2)"/>
      <path fill="none" d="M588.3838 586.9559 L588.3838 629.9854 L605.3544 646.9559 L779.229 646.9559" clip-path="url(#clipPath2)"/>
      <path fill="none" d="M683.6423 586.9559 L683.6423 598.7133 L687.8849 602.9559 L779.2269 602.9559" clip-path="url(#clipPath2)"/>
      <path fill="none" d="M659.8276 556.9302 L659.8276 543.7844 L662.6561 540.9559 L779.243 540.9559" clip-path="url(#clipPath2)"/>
      <path fill="none" d="M516.9399 556.9154 L516.9399 515.4532 L532.4963 499.8969 L779.2413 499.8969" clip-path="url(#clipPath2)"/>
      <path fill="none" d="M734.2715 566.9559 L1014.7468 566.9559 L1035.96 545.7427 L1035.96 461.9559" clip-path="url(#clipPath2)"/>
      <path fill="none" d="M361.8714 305.4189 L361.8714 318.8 L364.6999 321.6284 L442.4581 321.6284" clip-path="url(#clipPath2)"/>
      <path fill="none" d="M775.3633 323.6712 L846.1169 323.6712 L857.4307 334.9849 L857.4307 363.3102" clip-path="url(#clipPath2)"/>
      <path fill="none" d="M1066.9233 393.3379 L1066.9233 436.3673 L1083.8939 453.3379 L1143.873 453.3379" clip-path="url(#clipPath2)"/>
      <path fill="none" d="M1086.2427 393.3379 L1086.2427 406.5094 L1089.071 409.3379 L1143.8756 409.3379" clip-path="url(#clipPath2)"/>
      <path fill="none" d="M1061.835 363.3121 L1061.835 350.1663 L1064.6633 347.3379 L1143.8636 347.3379" clip-path="url(#clipPath2)"/>
      <path fill="none" d="M993.7002 363.3034 L993.7002 328.0658 L1006.4281 315.3379 L1143.8688 315.3379" clip-path="url(#clipPath2)"/>
      <path fill="none" d="M775.3633 307.8379 L914.2517 307.8379 L925.5654 296.5241 L925.5654 268.3379" clip-path="url(#clipPath2)"/>
      <path fill="none" d="M1129.8164 253.3379 L1174.7725 253.3379" clip-path="url(#clipPath2)"/>
      <path fill="none" d="M277.0473 275.3754 L277.0473 186.2132 L298.2605 165 L442.4609 165" clip-path="url(#clipPath2)"/>
      <path fill="none" d="M615.4727 165 L660.4287 165" clip-path="url(#clipPath2)"/>
      <path fill="none" d="M166.1234 305.4189 L166.1234 441.6837 L187.3366 462.8969 L442.4649 462.8969" clip-path="url(#clipPath2)"/>
      <path fill="none" d="M231.3727 305.4189 L231.3727 394.6247 L252.5859 415.8379 L442.4497 415.8379" clip-path="url(#clipPath2)"/>
      <path fill="none" d="M120.4488 275.3727 L120.4488 86.2132 L141.662 65 L442.4594 65" clip-path="url(#clipPath2)"/>
      <path fill="none" d="M849.2734 65 L894.2295 65" clip-path="url(#clipPath2)"/>
      <path fill="none" d="M1020.0547 80 L1020.0547 93.1716 L1022.8831 96 L1190.7949 96" clip-path="url(#clipPath2)"/>
      <path fill="none" d="M1020.0547 49.9743 L1020.0547 36.8284 L1022.8831 34 L1190.7949 34" clip-path="url(#clipPath2)"/>
      <path fill="none" d="M296.6221 305.4189 L296.6221 348.8673 L313.5926 365.8379 L442.4646 365.8379" clip-path="url(#clipPath2)"/>
      <path fill="none" d="M397.4961 290.4189 L569.278 290.4189 L572.1064 287.5905 L572.1064 280" clip-path="url(#clipPath2)"/>
      <path fill="none" d="M355.3465 275.3765 L355.3465 231.9706 L372.317 215 L442.4618 215" clip-path="url(#clipPath2)"/>
      <path fill="none" d="M198.748 275.3849 L198.748 136.2132 L219.9613 115 L442.4689 115" clip-path="url(#clipPath2)"/>
      <path fill="none" d="M42.1496 275.3897 L42.1496 36.2132 L63.3628 15 L442.4498 15" clip-path="url(#clipPath2)"/>
    </g>
  </g>
</svg>
