<?xml version="1.0" encoding="UTF-8"?><svg xmlns="http://www.w3.org/2000/svg" xmlns:xlink="http://www.w3.org/1999/xlink" fill-opacity="1" color-rendering="auto" color-interpolation="auto" stroke="black" text-rendering="auto" stroke-linecap="square" width="1672" stroke-miterlimit="10" stroke-opacity="1" shape-rendering="auto" fill="black" stroke-dasharray="none" font-weight="normal" stroke-width="1" height="785" font-family="'Dialog'" font-style="normal" stroke-linejoin="miter" font-size="12" stroke-dashoffset="0" image-rendering="auto">
  <!--Generated by ySVG-->
  <defs id="genericDefs"/>
  <g>
    <defs id="defs1">
      <clipPath clipPathUnits="userSpaceOnUse" id="clipPath1">
        <path d="M0 0 L1672 0 L1672 785 L0 785 L0 0 Z"/>
      </clipPath>
      <clipPath clipPathUnits="userSpaceOnUse" id="clipPath2">
        <path d="M-15 -15 L1657 -15 L1657 770 L-15 770 L-15 -15 Z"/>
      </clipPath>
    </defs>
    <g fill="white" transform="translate(15,15)" stroke="white">
      <rect x="-15" width="1672" height="785" y="-15" clip-path="url(#clipPath2)" stroke="none"/>
    </g>
    <g fill="rgb(255,204,153)" transform="matrix(1,0,0,1,15,15)" stroke="rgb(255,204,153)">
      <rect x="0" width="397.4961" height="30" y="250" clip-path="url(#clipPath2)" stroke="none"/>
    </g>
    <g stroke-miterlimit="1.45" font-family="sans-serif" transform="matrix(1,0,0,1,15,15)" stroke-linecap="butt">
      <text x="7" xml:space="preserve" y="269.1562" clip-path="url(#clipPath2)" stroke="none">com.anrisoftware.globalpom:globalpom-groovytestutils:jar:1.17</text>
      <rect fill="none" x="0" width="397.4961" height="30" y="250" clip-path="url(#clipPath2)"/>
    </g>
    <g fill="rgb(204,204,255)" transform="matrix(1,0,0,1,15,15)" stroke="rgb(204,204,255)">
      <rect x="437.4961" width="338.5156" height="30" y="0" clip-path="url(#clipPath2)" stroke="none"/>
    </g>
    <g stroke-miterlimit="1.45" font-family="sans-serif" transform="matrix(1,0,0,1,15,15)" stroke-linecap="butt">
      <text x="444.4961" xml:space="preserve" y="19.1562" clip-path="url(#clipPath2)" stroke="none">org.apache.commons:commons-lang3:jar:3.1:compile</text>
      <rect fill="none" x="437.4961" width="338.5156" height="30" y="0" clip-path="url(#clipPath2)"/>
    </g>
    <g fill="rgb(204,204,255)" transform="matrix(1,0,0,1,15,15)" stroke="rgb(204,204,255)">
      <rect x="437.4961" width="291.7754" height="30" y="425" clip-path="url(#clipPath2)" stroke="none"/>
    </g>
    <g stroke-miterlimit="1.45" font-family="sans-serif" transform="matrix(1,0,0,1,15,15)" stroke-linecap="butt">
      <text x="444.4961" xml:space="preserve" y="444.1562" clip-path="url(#clipPath2)" stroke="none">org.codehaus.groovy:groovy:jar:2.1.2:compile</text>
      <rect fill="none" x="437.4961" width="291.7754" height="30" y="425" clip-path="url(#clipPath2)"/>
    </g>
    <g fill="rgb(204,204,255)" transform="matrix(1,0,0,1,15,15)" stroke="rgb(204,204,255)">
      <rect x="769.2715" width="179.4863" height="30" y="550" clip-path="url(#clipPath2)" stroke="none"/>
    </g>
    <g stroke-miterlimit="1.45" font-family="sans-serif" transform="matrix(1,0,0,1,15,15)" stroke-linecap="butt">
      <text x="776.2715" xml:space="preserve" y="569.1562" clip-path="url(#clipPath2)" stroke="none">antlr:antlr:jar:2.7.7:compile</text>
      <rect fill="none" x="769.2715" width="179.4863" height="30" y="550" clip-path="url(#clipPath2)"/>
    </g>
    <g fill="rgb(204,204,255)" transform="matrix(1,0,0,1,15,15)" stroke="rgb(204,204,255)">
      <rect x="769.2715" width="243.8105" height="30" y="500" clip-path="url(#clipPath2)" stroke="none"/>
    </g>
    <g stroke-miterlimit="1.45" font-family="sans-serif" transform="matrix(1,0,0,1,15,15)" stroke-linecap="butt">
      <text x="776.2715" xml:space="preserve" y="519.1562" clip-path="url(#clipPath2)" stroke="none">org.ow2.asm:asm-tree:jar:4.0:compile</text>
      <rect fill="none" x="769.2715" width="243.8105" height="30" y="500" clip-path="url(#clipPath2)"/>
    </g>
    <g fill="rgb(204,204,255)" transform="matrix(1,0,0,1,15,15)" stroke="rgb(204,204,255)">
      <rect x="769.2715" width="277.9238" height="30" y="450" clip-path="url(#clipPath2)" stroke="none"/>
    </g>
    <g stroke-miterlimit="1.45" font-family="sans-serif" transform="matrix(1,0,0,1,15,15)" stroke-linecap="butt">
      <text x="776.2715" xml:space="preserve" y="469.1562" clip-path="url(#clipPath2)" stroke="none">org.ow2.asm:asm-commons:jar:4.0:compile</text>
      <rect fill="none" x="769.2715" width="277.9238" height="30" y="450" clip-path="url(#clipPath2)"/>
    </g>
    <g fill="rgb(204,204,255)" transform="matrix(1,0,0,1,15,15)" stroke="rgb(204,204,255)">
      <rect x="769.2715" width="215.0762" height="30" y="400" clip-path="url(#clipPath2)" stroke="none"/>
    </g>
    <g stroke-miterlimit="1.45" font-family="sans-serif" transform="matrix(1,0,0,1,15,15)" stroke-linecap="butt">
      <text x="776.2715" xml:space="preserve" y="419.1562" clip-path="url(#clipPath2)" stroke="none">org.ow2.asm:asm:jar:4.0:compile</text>
      <rect fill="none" x="769.2715" width="215.0762" height="30" y="400" clip-path="url(#clipPath2)"/>
    </g>
    <g fill="rgb(204,204,255)" transform="matrix(1,0,0,1,15,15)" stroke="rgb(204,204,255)">
      <rect x="769.2715" width="238.3848" height="30" y="350" clip-path="url(#clipPath2)" stroke="none"/>
    </g>
    <g stroke-miterlimit="1.45" font-family="sans-serif" transform="matrix(1,0,0,1,15,15)" stroke-linecap="butt">
      <text x="776.2715" xml:space="preserve" y="369.1562" clip-path="url(#clipPath2)" stroke="none">org.ow2.asm:asm-util:jar:4.0:compile</text>
      <rect fill="none" x="769.2715" width="238.3848" height="30" y="350" clip-path="url(#clipPath2)"/>
    </g>
    <g fill="rgb(204,204,255)" transform="matrix(1,0,0,1,15,15)" stroke="rgb(204,204,255)">
      <rect x="769.2715" width="267.9922" height="30" y="300" clip-path="url(#clipPath2)" stroke="none"/>
    </g>
    <g stroke-miterlimit="1.45" font-family="sans-serif" transform="matrix(1,0,0,1,15,15)" stroke-linecap="butt">
      <text x="776.2715" xml:space="preserve" y="319.1562" clip-path="url(#clipPath2)" stroke="none">org.ow2.asm:asm-analysis:jar:4.0:compile</text>
      <rect fill="none" x="769.2715" width="267.9922" height="30" y="300" clip-path="url(#clipPath2)"/>
    </g>
    <g fill="rgb(204,204,255)" transform="matrix(1,0,0,1,15,15)" stroke="rgb(204,204,255)">
      <rect x="437.4961" width="332.8672" height="30" y="662.5" clip-path="url(#clipPath2)" stroke="none"/>
    </g>
    <g stroke-miterlimit="1.45" font-family="sans-serif" transform="matrix(1,0,0,1,15,15)" stroke-linecap="butt">
      <text x="444.4961" xml:space="preserve" y="681.6562" clip-path="url(#clipPath2)" stroke="none">org.easytesting:fest-swing-junit-4.5:jar:1.2.1:compile</text>
      <rect fill="none" x="437.4961" width="332.8672" height="30" y="662.5" clip-path="url(#clipPath2)"/>
    </g>
    <g fill="rgb(204,204,255)" transform="matrix(1,0,0,1,15,15)" stroke="rgb(204,204,255)">
      <rect x="810.3633" width="278.5391" height="30" y="600" clip-path="url(#clipPath2)" stroke="none"/>
    </g>
    <g stroke-miterlimit="1.45" font-family="sans-serif" transform="matrix(1,0,0,1,15,15)" stroke-linecap="butt">
      <text x="817.3633" xml:space="preserve" y="619.1562" clip-path="url(#clipPath2)" stroke="none">org.easytesting:fest-swing:jar:1.2.1:compile</text>
      <rect fill="none" x="810.3633" width="278.5391" height="30" y="600" clip-path="url(#clipPath2)"/>
    </g>
    <g fill="rgb(204,204,255)" transform="matrix(1,0,0,1,15,15)" stroke="rgb(204,204,255)">
      <rect x="1128.9023" width="269.3457" height="30" y="675" clip-path="url(#clipPath2)" stroke="none"/>
    </g>
    <g stroke-miterlimit="1.45" font-family="sans-serif" transform="matrix(1,0,0,1,15,15)" stroke-linecap="butt">
      <text x="1135.9023" xml:space="preserve" y="694.1562" clip-path="url(#clipPath2)" stroke="none">org.easytesting:fest-assert:jar:1.2:compile</text>
      <rect fill="none" x="1128.9023" width="269.3457" height="30" y="675" clip-path="url(#clipPath2)"/>
    </g>
    <g fill="rgb(204,204,255)" transform="matrix(1,0,0,1,15,15)" stroke="rgb(204,204,255)">
      <rect x="1128.9023" width="271.0273" height="30" y="625" clip-path="url(#clipPath2)" stroke="none"/>
    </g>
    <g stroke-miterlimit="1.45" font-family="sans-serif" transform="matrix(1,0,0,1,15,15)" stroke-linecap="butt">
      <text x="1135.9023" xml:space="preserve" y="644.1562" clip-path="url(#clipPath2)" stroke="none">org.easytesting:fest-reflect:jar:1.2:compile</text>
      <rect fill="none" x="1128.9023" width="271.0273" height="30" y="625" clip-path="url(#clipPath2)"/>
    </g>
    <g fill="rgb(204,204,255)" transform="matrix(1,0,0,1,15,15)" stroke="rgb(204,204,255)">
      <rect x="1128.9023" width="262.8945" height="30" y="575" clip-path="url(#clipPath2)" stroke="none"/>
    </g>
    <g stroke-miterlimit="1.45" font-family="sans-serif" transform="matrix(1,0,0,1,15,15)" stroke-linecap="butt">
      <text x="1135.9023" xml:space="preserve" y="594.1562" clip-path="url(#clipPath2)" stroke="none">org.easytesting:fest-util:jar:1.1.6:compile</text>
      <rect fill="none" x="1128.9023" width="262.8945" height="30" y="575" clip-path="url(#clipPath2)"/>
    </g>
    <g fill="rgb(204,204,255)" transform="matrix(1,0,0,1,15,15)" stroke="rgb(204,204,255)">
      <rect x="1128.9023" width="252.9805" height="30" y="525" clip-path="url(#clipPath2)" stroke="none"/>
    </g>
    <g stroke-miterlimit="1.45" font-family="sans-serif" transform="matrix(1,0,0,1,15,15)" stroke-linecap="butt">
      <text x="1135.9023" xml:space="preserve" y="544.1562" clip-path="url(#clipPath2)" stroke="none">net.jcip:jcip-annotations:jar:1.0:compile</text>
      <rect fill="none" x="1128.9023" width="252.9805" height="30" y="525" clip-path="url(#clipPath2)"/>
    </g>
    <g fill="rgb(204,204,255)" transform="matrix(1,0,0,1,15,15)" stroke="rgb(204,204,255)">
      <rect x="810.3633" width="309.4531" height="30" y="725" clip-path="url(#clipPath2)" stroke="none"/>
    </g>
    <g stroke-miterlimit="1.45" font-family="sans-serif" transform="matrix(1,0,0,1,15,15)" stroke-linecap="butt">
      <text x="817.3633" xml:space="preserve" y="744.1562" clip-path="url(#clipPath2)" stroke="none">org.easytesting:fest-swing-junit:jar:1.2.1:compile</text>
      <rect fill="none" x="810.3633" width="309.4531" height="30" y="725" clip-path="url(#clipPath2)"/>
    </g>
    <g fill="rgb(204,204,255)" transform="matrix(1,0,0,1,15,15)" stroke="rgb(204,204,255)">
      <rect x="1159.8164" width="481.4082" height="30" y="725" clip-path="url(#clipPath2)" stroke="none"/>
    </g>
    <g stroke-miterlimit="1.45" font-family="sans-serif" transform="matrix(1,0,0,1,15,15)" stroke-linecap="butt">
      <text x="1166.8164" xml:space="preserve" y="744.1562" clip-path="url(#clipPath2)" stroke="none">commons-codec:commons-codec:jar:1.7:compile (version managed from 1.3)</text>
      <rect fill="none" x="1159.8164" width="481.4082" height="30" y="725" clip-path="url(#clipPath2)"/>
    </g>
    <g fill="rgb(204,204,255)" transform="matrix(1,0,0,1,15,15)" stroke="rgb(204,204,255)">
      <rect x="437.4961" width="172.9766" height="30" y="50" clip-path="url(#clipPath2)" stroke="none"/>
    </g>
    <g stroke-miterlimit="1.45" font-family="sans-serif" transform="matrix(1,0,0,1,15,15)" stroke-linecap="butt">
      <text x="444.4961" xml:space="preserve" y="69.1562" clip-path="url(#clipPath2)" stroke="none">junit:junit:jar:4.11:compile</text>
      <rect fill="none" x="437.4961" width="172.9766" height="30" y="50" clip-path="url(#clipPath2)"/>
    </g>
    <g fill="rgb(204,204,255)" transform="matrix(1,0,0,1,15,15)" stroke="rgb(204,204,255)">
      <rect x="650.4727" width="279.5059" height="30" y="50" clip-path="url(#clipPath2)" stroke="none"/>
    </g>
    <g stroke-miterlimit="1.45" font-family="sans-serif" transform="matrix(1,0,0,1,15,15)" stroke-linecap="butt">
      <text x="657.4727" xml:space="preserve" y="69.1562" clip-path="url(#clipPath2)" stroke="none">org.hamcrest:hamcrest-core:jar:1.3:compile</text>
      <rect fill="none" x="650.4727" width="279.5059" height="30" y="50" clip-path="url(#clipPath2)"/>
    </g>
    <g fill="rgb(204,204,255)" transform="matrix(1,0,0,1,15,15)" stroke="rgb(204,204,255)">
      <rect x="437.4961" width="330.7285" height="30" y="200" clip-path="url(#clipPath2)" stroke="none"/>
    </g>
    <g stroke-miterlimit="1.45" font-family="sans-serif" transform="matrix(1,0,0,1,15,15)" stroke-linecap="butt">
      <text x="444.4961" xml:space="preserve" y="219.1562" clip-path="url(#clipPath2)" stroke="none">org.codehaus.groovy:groovy-swing:jar:2.1.2:compile</text>
      <rect fill="none" x="437.4961" width="330.7285" height="30" y="200" clip-path="url(#clipPath2)"/>
    </g>
    <g fill="rgb(204,204,255)" transform="matrix(1,0,0,1,15,15)" stroke="rgb(204,204,255)">
      <rect x="437.4961" width="333.4355" height="30" y="100" clip-path="url(#clipPath2)" stroke="none"/>
    </g>
    <g stroke-miterlimit="1.45" font-family="sans-serif" transform="matrix(1,0,0,1,15,15)" stroke-linecap="butt">
      <text x="444.4961" xml:space="preserve" y="119.1562" clip-path="url(#clipPath2)" stroke="none">org.apache.commons:commons-exec:jar:1.1:compile</text>
      <rect fill="none" x="437.4961" width="333.4355" height="30" y="100" clip-path="url(#clipPath2)"/>
    </g>
    <g fill="rgb(204,204,255)" transform="matrix(1,0,0,1,15,15)" stroke="rgb(204,204,255)">
      <rect x="437.4961" width="406.7773" height="30" y="250" clip-path="url(#clipPath2)" stroke="none"/>
    </g>
    <g stroke-miterlimit="1.45" font-family="sans-serif" transform="matrix(1,0,0,1,15,15)" stroke-linecap="butt">
      <text x="444.4961" xml:space="preserve" y="269.1562" clip-path="url(#clipPath2)" stroke="none">com.google.inject.extensions:guice-assistedinject:jar:3.0:compile</text>
      <rect fill="none" x="437.4961" width="406.7773" height="30" y="250" clip-path="url(#clipPath2)"/>
    </g>
    <g fill="rgb(204,204,255)" transform="matrix(1,0,0,1,15,15)" stroke="rgb(204,204,255)">
      <rect x="884.2734" width="251.5625" height="30" y="250" clip-path="url(#clipPath2)" stroke="none"/>
    </g>
    <g stroke-miterlimit="1.45" font-family="sans-serif" transform="matrix(1,0,0,1,15,15)" stroke-linecap="butt">
      <text x="891.2734" xml:space="preserve" y="269.1562" clip-path="url(#clipPath2)" stroke="none">com.google.inject:guice:jar:3.0:compile</text>
      <rect fill="none" x="884.2734" width="251.5625" height="30" y="250" clip-path="url(#clipPath2)"/>
    </g>
    <g fill="rgb(204,204,255)" transform="matrix(1,0,0,1,15,15)" stroke="rgb(204,204,255)">
      <rect x="1175.8359" width="238.7598" height="30" y="275" clip-path="url(#clipPath2)" stroke="none"/>
    </g>
    <g stroke-miterlimit="1.45" font-family="sans-serif" transform="matrix(1,0,0,1,15,15)" stroke-linecap="butt">
      <text x="1182.8359" xml:space="preserve" y="294.1562" clip-path="url(#clipPath2)" stroke="none">javax.inject:javax.inject:jar:1:compile</text>
      <rect fill="none" x="1175.8359" width="238.7598" height="30" y="275" clip-path="url(#clipPath2)"/>
    </g>
    <g fill="rgb(204,204,255)" transform="matrix(1,0,0,1,15,15)" stroke="rgb(204,204,255)">
      <rect x="1175.8359" width="249.3887" height="30" y="225" clip-path="url(#clipPath2)" stroke="none"/>
    </g>
    <g stroke-miterlimit="1.45" font-family="sans-serif" transform="matrix(1,0,0,1,15,15)" stroke-linecap="butt">
      <text x="1182.8359" xml:space="preserve" y="244.1562" clip-path="url(#clipPath2)" stroke="none">aopalliance:aopalliance:jar:1.0:compile</text>
      <rect fill="none" x="1175.8359" width="249.3887" height="30" y="225" clip-path="url(#clipPath2)"/>
    </g>
    <g fill="rgb(204,204,255)" transform="matrix(1,0,0,1,15,15)" stroke="rgb(204,204,255)">
      <rect x="437.4961" width="226.3496" height="30" y="612.5" clip-path="url(#clipPath2)" stroke="none"/>
    </g>
    <g stroke-miterlimit="1.45" font-family="sans-serif" transform="matrix(1,0,0,1,15,15)" stroke-linecap="butt">
      <text x="444.4961" xml:space="preserve" y="631.6562" clip-path="url(#clipPath2)" stroke="none">joda-time:joda-time:jar:2.1:compile</text>
      <rect fill="none" x="437.4961" width="226.3496" height="30" y="612.5" clip-path="url(#clipPath2)"/>
    </g>
    <g fill="rgb(255,204,153)" transform="matrix(1,0,0,1,15,15)" stroke="rgb(255,204,153)">
      <rect x="437.4961" width="505.3965" height="30" y="150" clip-path="url(#clipPath2)" stroke="none"/>
    </g>
    <g stroke-miterlimit="1.45" font-family="sans-serif" transform="matrix(1,0,0,1,15,15)" stroke-linecap="butt">
      <text x="444.4961" xml:space="preserve" y="169.1562" clip-path="url(#clipPath2)" stroke="none">com.anrisoftware.propertiesutils:propertiesutils-contextproperties:jar:1.5:compile</text>
      <rect fill="none" x="437.4961" width="505.3965" height="30" y="150" clip-path="url(#clipPath2)"/>
    </g>
    <g fill="rgb(204,204,255)" transform="matrix(1,0,0,1,15,15)" stroke="rgb(204,204,255)">
      <rect x="437.4961" width="259.2207" height="30" y="345.7132" clip-path="url(#clipPath2)" stroke="none"/>
    </g>
    <g stroke-miterlimit="1.45" font-family="sans-serif" transform="matrix(1,0,0,1,15,15)" stroke-linecap="butt">
      <text x="444.4961" xml:space="preserve" y="364.8694" clip-path="url(#clipPath2)" stroke="none">commons-io:commons-io:jar:2.4:compile</text>
      <rect fill="none" x="437.4961" width="259.2207" height="30" y="345.7132" clip-path="url(#clipPath2)"/>
    </g>
    <g fill="rgb(204,204,255)" transform="matrix(1,0,0,1,15,15)" stroke="rgb(204,204,255)">
      <rect x="437.4961" width="219.5234" height="30" y="712.5" clip-path="url(#clipPath2)" stroke="none"/>
    </g>
    <g stroke-miterlimit="1.45" font-family="sans-serif" transform="matrix(1,0,0,1,15,15)" stroke-linecap="butt">
      <text x="444.4961" xml:space="preserve" y="731.6562" clip-path="url(#clipPath2)" stroke="none">org.slf4j:slf4j-api:jar:1.7.5:compile</text>
      <rect fill="none" x="437.4961" width="219.5234" height="30" y="712.5" clip-path="url(#clipPath2)"/>
      <path fill="none" d="M42.1496 249.9739 L42.1496 36.2132 L63.3628 15 L437.4504 15" clip-path="url(#clipPath2)"/>
      <path fill="none" d="M277.0473 280 L277.0473 418.7868 L298.2605 440 L437.4621 440" clip-path="url(#clipPath2)"/>
      <path fill="none" d="M488.1253 455 L488.1253 543.7868 L509.3385 565 L769.2397 565" clip-path="url(#clipPath2)"/>
      <path fill="none" d="M583.3838 455 L583.3838 498.0294 L600.3544 515 L769.2302 515" clip-path="url(#clipPath2)"/>
      <path fill="none" d="M678.6423 455 L678.6423 466.7574 L682.8849 471 L769.2293 471" clip-path="url(#clipPath2)"/>
      <path fill="none" d="M723.0124 424.9743 L723.0124 411.8284 L725.8408 409 L769.2291 409" clip-path="url(#clipPath2)"/>
      <path fill="none" d="M716.4941 424.9552 L716.4941 379.1422 L730.6363 365 L769.2338 365" clip-path="url(#clipPath2)"/>
      <path fill="none" d="M709.9759 424.9546 L709.9759 331.9706 L726.9465 315 L769.2302 315" clip-path="url(#clipPath2)"/>
      <path fill="none" d="M120.4488 280 L120.4488 656.2868 L141.662 677.5 L437.46 677.5" clip-path="url(#clipPath2)"/>
      <path fill="none" d="M770.3633 669.6667 L849.6394 669.6667 L860.9531 658.353 L860.9531 630" clip-path="url(#clipPath2)"/>
      <path fill="none" d="M956.1328 630 L956.1328 665.2721 L968.8607 678 L1128.8633 678" clip-path="url(#clipPath2)"/>
      <path fill="none" d="M1051.3125 630 L1051.3125 641.7574 L1055.5552 646 L1128.8666 646" clip-path="url(#clipPath2)"/>
      <path fill="none" d="M1054.1162 599.9743 L1054.1162 586.8284 L1056.9446 584 L1128.8672 584" clip-path="url(#clipPath2)"/>
      <path fill="none" d="M990.5439 599.9611 L990.5439 560.1422 L1004.6861 546 L1128.8721 546" clip-path="url(#clipPath2)"/>
      <path fill="none" d="M770.3633 685.6667 L1041.413 685.6667 L1051.3125 695.5662 L1051.3125 724.9713" clip-path="url(#clipPath2)"/>
      <path fill="none" d="M1119.8164 740 L1159.7773 740" clip-path="url(#clipPath2)"/>
      <path fill="none" d="M120.4488 249.96 L120.4488 86.2132 L141.662 65 L437.46 65" clip-path="url(#clipPath2)"/>
      <path fill="none" d="M610.4727 65 L650.4336 65" clip-path="url(#clipPath2)"/>
      <path fill="none" d="M355.3465 249.9741 L355.3465 223.4853 L363.8318 215 L437.4601 215" clip-path="url(#clipPath2)"/>
      <path fill="none" d="M198.748 249.9722 L198.748 136.2132 L219.9613 115 L437.4695 115" clip-path="url(#clipPath2)"/>
      <path fill="none" d="M397.4961 265 L437.457 265" clip-path="url(#clipPath2)"/>
      <path fill="none" d="M844.2734 265 L884.2344 265" clip-path="url(#clipPath2)"/>
      <path fill="none" d="M1090.0498 280 L1090.0498 293.1716 L1092.8782 296 L1175.7954 296" clip-path="url(#clipPath2)"/>
      <path fill="none" d="M1010.0547 249.9743 L1010.0547 236.8284 L1012.8831 234 L1175.7961 234" clip-path="url(#clipPath2)"/>
      <path fill="none" d="M198.748 280 L198.748 606.2868 L219.9613 627.5 L437.4695 627.5" clip-path="url(#clipPath2)"/>
      <path fill="none" d="M277.0473 249.9689 L277.0473 186.2132 L298.2605 165 L437.4621 165" clip-path="url(#clipPath2)"/>
      <path fill="none" d="M355.3465 280 L355.3465 339.5 L376.5597 360.7132 L437.4663 360.7132" clip-path="url(#clipPath2)"/>
      <path fill="none" d="M42.1496 280 L42.1496 706.2868 L63.3628 727.5 L437.4504 727.5" clip-path="url(#clipPath2)"/>
    </g>
  </g>
</svg>
